<?xml version="1.0" standalone="no"?>
<!DOCTYPE svg PUBLIC "-//W3C//DTD SVG 20010904//EN"
 "http://www.w3.org/TR/2001/REC-SVG-20010904/DTD/svg10.dtd">
<svg version="1.0" xmlns="http://www.w3.org/2000/svg"
 width="500.000000pt" height="500.000000pt" viewBox="0 0 500.000000 500.000000"
 preserveAspectRatio="xMidYMid meet">
<metadata>
Created by potrace 1.11, written by Peter Selinger 2001-2013
</metadata>
<g transform="translate(0.000000,500.000000) scale(0.100000,-0.100000)"
fill="#000000" stroke="none">
<path d="M629 4996 c-2 -2 -21 -7 -42 -10 -55 -9 -149 -42 -204 -72 -185 -102
-313 -268 -363 -473 -18 -73 -18 -155 -18 -1941 0 -1801 0 -1868 19 -1943 61
-252 231 -434 488 -525 l76 -27 1875 -2 c1126 -1 1900 2 1938 8 77 11 193 56
268 104 157 101 268 257 313 442 19 75 19 142 19 1938 0 2022 3 1922 -55 2059
-86 205 -259 357 -481 424 -53 16 -193 17 -1943 20 -1037 1 -1887 0 -1890 -2z"/>
</g>
</svg>
